<svg xmlns="http://www.w3.org/2000/svg" xmlns:xlink="http://www.w3.org/1999/xlink" width="500" zoomAndPan="magnify" viewBox="0 0 375 374.999991" height="500" preserveAspectRatio="xMidYMid meet" version="1.0"><defs><clipPath id="18f711c0fb"><path d="M 5.625 0 L 368 0 L 368 375 L 5.625 375 Z M 5.625 0 " clip-rule="nonzero"/></clipPath></defs><g clip-path="url(#18f711c0fb)"><path fill="#d06832" d="M 361.878906 344.921875 L 272.035156 258.609375 C 298.722656 230.058594 313.34375 193.03125 313.34375 153.753906 C 313.34375 114.472656 297.332031 74.082031 268.308594 45.035156 C 239.261719 15.984375 200.648438 0 159.589844 0 C 118.53125 0 79.921875 15.984375 50.871094 45.035156 C 21.820312 74.082031 5.835938 112.695312 5.835938 153.753906 C 5.835938 194.8125 21.820312 233.421875 50.871094 262.472656 C 79.921875 291.519531 118.53125 307.503906 159.589844 307.503906 C 190.558594 307.503906 220.109375 298.414062 245.238281 281.484375 L 337.582031 370.191406 C 340.863281 373.332031 345.171875 375.082031 349.730469 375.082031 C 354.289062 375.082031 359.097656 373.109375 362.378906 369.691406 C 369.078125 362.714844 368.855469 351.59375 361.878906 344.894531 Z M 227.140625 254.6875 C 207.820312 267.644531 184.609375 275.203125 159.589844 275.203125 C 92.511719 275.203125 38.167969 220.832031 38.167969 153.78125 C 38.167969 86.730469 92.511719 32.328125 159.589844 32.328125 C 226.667969 32.328125 281.015625 86.703125 281.015625 153.753906 C 281.015625 187 267.644531 217.132812 245.988281 239.066406 C 240.261719 244.875 233.921875 250.128906 227.113281 254.6875 Z M 227.140625 254.6875 " fill-opacity="1" fill-rule="nonzero"/></g></svg>